<mxfile host="app.diagrams.net" modified="2020-07-26T21:01:31.098Z" agent="5.0 (Windows NT 10.0; Win64; x64) AppleWebKit/537.36 (KHTML, like Gecko) Chrome/84.0.4147.89 Safari/537.36" etag="ucctv7W_pqeRCwBdP6yM" version="13.5.3" type="github">
  <diagram name="Page-1" id="c37626ed-c26b-45fb-9056-f9ebc6bb27b6">
    <mxGraphModel dx="2844" dy="3224" grid="1" gridSize="10" guides="1" tooltips="1" connect="1" arrows="1" fold="1" page="1" pageScale="1" pageWidth="1100" pageHeight="850" background="#ffffff" math="0" shadow="0">
      <root>
        <mxCell id="0" />
        <mxCell id="1" parent="0" />
        <mxCell id="iodz60LWNmSj9Z9L-36Y-143" style="edgeStyle=none;rounded=0;orthogonalLoop=1;jettySize=auto;html=1;entryX=0.5;entryY=0;entryDx=0;entryDy=0;endArrow=none;endFill=0;strokeColor=#000000;exitX=0.55;exitY=0.95;exitDx=0;exitDy=0;exitPerimeter=0;" edge="1" parent="1" source="1c7a67bf8fd3230f-15" target="iodz60LWNmSj9Z9L-36Y-137">
          <mxGeometry relative="1" as="geometry" />
        </mxCell>
        <mxCell id="iodz60LWNmSj9Z9L-36Y-144" style="edgeStyle=none;rounded=0;orthogonalLoop=1;jettySize=auto;html=1;exitX=0.55;exitY=0.95;exitDx=0;exitDy=0;exitPerimeter=0;entryX=0.5;entryY=0;entryDx=0;entryDy=0;endArrow=none;endFill=0;strokeColor=#000000;" edge="1" parent="1" source="1c7a67bf8fd3230f-15" target="iodz60LWNmSj9Z9L-36Y-138">
          <mxGeometry relative="1" as="geometry" />
        </mxCell>
        <mxCell id="1c7a67bf8fd3230f-15" value="Internet" style="ellipse;shape=cloud;whiteSpace=wrap;html=1;rounded=0;shadow=0;comic=0;strokeWidth=1;fontFamily=Verdana;fontSize=12;" parent="1" vertex="1">
          <mxGeometry x="2350" y="-920" width="120" height="80" as="geometry" />
        </mxCell>
        <mxCell id="iodz60LWNmSj9Z9L-36Y-9" style="edgeStyle=none;rounded=0;orthogonalLoop=1;jettySize=auto;html=1;exitX=0.5;exitY=0;exitDx=0;exitDy=0;entryX=0;entryY=1;entryDx=0;entryDy=0;endArrow=none;endFill=0;strokeColor=#000000;" edge="1" parent="1" source="iodz60LWNmSj9Z9L-36Y-1" target="iodz60LWNmSj9Z9L-36Y-5">
          <mxGeometry relative="1" as="geometry" />
        </mxCell>
        <mxCell id="iodz60LWNmSj9Z9L-36Y-1" value="" style="verticalLabelPosition=bottom;html=1;verticalAlign=top;align=center;strokeColor=none;fillColor=#00BEF2;shape=mxgraph.azure.computer;pointerEvents=1;" vertex="1" parent="1">
          <mxGeometry x="460" y="440" width="50" height="50" as="geometry" />
        </mxCell>
        <mxCell id="iodz60LWNmSj9Z9L-36Y-2" value="" style="verticalLabelPosition=bottom;html=1;verticalAlign=top;align=center;strokeColor=none;fillColor=#00BEF2;shape=mxgraph.azure.computer;pointerEvents=1;" vertex="1" parent="1">
          <mxGeometry x="610" y="440" width="50" height="50" as="geometry" />
        </mxCell>
        <mxCell id="iodz60LWNmSj9Z9L-36Y-7" style="rounded=0;orthogonalLoop=1;jettySize=auto;html=1;exitX=0.5;exitY=0;exitDx=0;exitDy=0;entryX=0;entryY=1;entryDx=0;entryDy=0;endArrow=none;endFill=0;" edge="1" parent="1" source="iodz60LWNmSj9Z9L-36Y-3" target="iodz60LWNmSj9Z9L-36Y-6">
          <mxGeometry relative="1" as="geometry" />
        </mxCell>
        <mxCell id="iodz60LWNmSj9Z9L-36Y-3" value="" style="verticalLabelPosition=bottom;html=1;verticalAlign=top;align=center;strokeColor=none;fillColor=#00BEF2;shape=mxgraph.azure.computer;pointerEvents=1;" vertex="1" parent="1">
          <mxGeometry x="780" y="440" width="50" height="50" as="geometry" />
        </mxCell>
        <mxCell id="iodz60LWNmSj9Z9L-36Y-4" value="" style="verticalLabelPosition=bottom;html=1;verticalAlign=top;align=center;strokeColor=none;fillColor=#00BEF2;shape=mxgraph.azure.computer;pointerEvents=1;" vertex="1" parent="1">
          <mxGeometry x="940" y="440" width="50" height="50" as="geometry" />
        </mxCell>
        <mxCell id="iodz60LWNmSj9Z9L-36Y-10" style="edgeStyle=none;rounded=0;orthogonalLoop=1;jettySize=auto;html=1;exitX=1;exitY=1;exitDx=0;exitDy=0;entryX=0.5;entryY=0;entryDx=0;entryDy=0;endArrow=none;endFill=0;strokeColor=#000000;" edge="1" parent="1" source="iodz60LWNmSj9Z9L-36Y-5" target="iodz60LWNmSj9Z9L-36Y-2">
          <mxGeometry relative="1" as="geometry" />
        </mxCell>
        <mxCell id="iodz60LWNmSj9Z9L-36Y-13" style="edgeStyle=none;rounded=0;orthogonalLoop=1;jettySize=auto;html=1;exitX=0.5;exitY=0;exitDx=0;exitDy=0;entryX=0.5;entryY=1;entryDx=0;entryDy=0;entryPerimeter=0;endArrow=none;endFill=0;strokeColor=#000000;exitPerimeter=0;" edge="1" parent="1" source="iodz60LWNmSj9Z9L-36Y-5" target="iodz60LWNmSj9Z9L-36Y-12">
          <mxGeometry relative="1" as="geometry" />
        </mxCell>
        <mxCell id="iodz60LWNmSj9Z9L-36Y-5" value="" style="image;html=1;image=img/lib/clip_art/networking/Switch_128x128.png;imageBorder=#000000;" vertex="1" parent="1">
          <mxGeometry x="530" y="300" width="80" height="80" as="geometry" />
        </mxCell>
        <mxCell id="iodz60LWNmSj9Z9L-36Y-8" style="edgeStyle=none;rounded=0;orthogonalLoop=1;jettySize=auto;html=1;exitX=1;exitY=1;exitDx=0;exitDy=0;entryX=0.5;entryY=0;entryDx=0;entryDy=0;endArrow=none;endFill=0;strokeColor=#000000;" edge="1" parent="1" source="iodz60LWNmSj9Z9L-36Y-6" target="iodz60LWNmSj9Z9L-36Y-4">
          <mxGeometry relative="1" as="geometry" />
        </mxCell>
        <mxCell id="iodz60LWNmSj9Z9L-36Y-6" value="" style="image;html=1;image=img/lib/clip_art/networking/Switch_128x128.png;imageBorder=#000000;" vertex="1" parent="1">
          <mxGeometry x="870" y="290" width="80" height="80" as="geometry" />
        </mxCell>
        <mxCell id="iodz60LWNmSj9Z9L-36Y-14" style="edgeStyle=none;rounded=0;orthogonalLoop=1;jettySize=auto;html=1;exitX=0.5;exitY=1;exitDx=0;exitDy=0;exitPerimeter=0;endArrow=none;endFill=0;strokeColor=#000000;entryX=0.5;entryY=0;entryDx=0;entryDy=0;entryPerimeter=0;" edge="1" parent="1" source="iodz60LWNmSj9Z9L-36Y-12" target="iodz60LWNmSj9Z9L-36Y-6">
          <mxGeometry relative="1" as="geometry" />
        </mxCell>
        <mxCell id="iodz60LWNmSj9Z9L-36Y-29" style="edgeStyle=none;rounded=0;orthogonalLoop=1;jettySize=auto;html=1;exitX=1;exitY=0.25;exitDx=0;exitDy=0;exitPerimeter=0;entryX=0;entryY=0.25;entryDx=0;entryDy=0;entryPerimeter=0;endArrow=none;endFill=0;strokeColor=#000000;" edge="1" parent="1" source="iodz60LWNmSj9Z9L-36Y-12" target="iodz60LWNmSj9Z9L-36Y-28">
          <mxGeometry relative="1" as="geometry" />
        </mxCell>
        <mxCell id="iodz60LWNmSj9Z9L-36Y-30" style="edgeStyle=none;rounded=0;orthogonalLoop=1;jettySize=auto;html=1;exitX=1;exitY=0.75;exitDx=0;exitDy=0;exitPerimeter=0;entryX=0;entryY=0.75;entryDx=0;entryDy=0;entryPerimeter=0;endArrow=none;endFill=0;strokeColor=#000000;" edge="1" parent="1" source="iodz60LWNmSj9Z9L-36Y-12" target="iodz60LWNmSj9Z9L-36Y-28">
          <mxGeometry relative="1" as="geometry" />
        </mxCell>
        <mxCell id="iodz60LWNmSj9Z9L-36Y-60" style="edgeStyle=none;rounded=0;orthogonalLoop=1;jettySize=auto;html=1;exitX=0.5;exitY=0;exitDx=0;exitDy=0;exitPerimeter=0;entryX=0.5;entryY=1;entryDx=0;entryDy=0;entryPerimeter=0;endArrow=none;endFill=0;strokeColor=#000000;" edge="1" parent="1" source="iodz60LWNmSj9Z9L-36Y-12" target="iodz60LWNmSj9Z9L-36Y-58">
          <mxGeometry relative="1" as="geometry" />
        </mxCell>
        <mxCell id="iodz60LWNmSj9Z9L-36Y-157" style="edgeStyle=none;rounded=0;orthogonalLoop=1;jettySize=auto;html=1;exitX=0.5;exitY=1;exitDx=0;exitDy=0;exitPerimeter=0;entryX=0.015;entryY=0.015;entryDx=0;entryDy=0;entryPerimeter=0;endArrow=none;endFill=0;strokeColor=#000000;" edge="1" parent="1" source="iodz60LWNmSj9Z9L-36Y-12" target="iodz60LWNmSj9Z9L-36Y-26">
          <mxGeometry relative="1" as="geometry" />
        </mxCell>
        <mxCell id="iodz60LWNmSj9Z9L-36Y-158" style="edgeStyle=none;rounded=0;orthogonalLoop=1;jettySize=auto;html=1;exitX=0.5;exitY=1;exitDx=0;exitDy=0;exitPerimeter=0;entryX=0.5;entryY=0;entryDx=0;entryDy=0;entryPerimeter=0;endArrow=none;endFill=0;strokeColor=#000000;" edge="1" parent="1" source="iodz60LWNmSj9Z9L-36Y-12" target="iodz60LWNmSj9Z9L-36Y-24">
          <mxGeometry relative="1" as="geometry" />
        </mxCell>
        <mxCell id="iodz60LWNmSj9Z9L-36Y-12" value="" style="points=[[0.015,0.015,0],[0.985,0.015,0],[0.985,0.985,0],[0.015,0.985,0],[0.25,0,0],[0.5,0,0],[0.75,0,0],[1,0.25,0],[1,0.5,0],[1,0.75,0],[0.75,1,0],[0.5,1,0],[0.25,1,0],[0,0.75,0],[0,0.5,0],[0,0.25,0]];verticalLabelPosition=bottom;html=1;verticalAlign=top;aspect=fixed;align=center;pointerEvents=1;shape=mxgraph.cisco19.rect;prIcon=l3_switch;fillColor=#FAFAFA;strokeColor=#005073;" vertex="1" parent="1">
          <mxGeometry x="820" y="20" width="70" height="70" as="geometry" />
        </mxCell>
        <mxCell id="iodz60LWNmSj9Z9L-36Y-16" style="edgeStyle=none;rounded=0;orthogonalLoop=1;jettySize=auto;html=1;exitX=0.5;exitY=0;exitDx=0;exitDy=0;entryX=0;entryY=1;entryDx=0;entryDy=0;endArrow=none;endFill=0;strokeColor=#000000;" edge="1" source="iodz60LWNmSj9Z9L-36Y-17" target="iodz60LWNmSj9Z9L-36Y-24" parent="1">
          <mxGeometry relative="1" as="geometry" />
        </mxCell>
        <mxCell id="iodz60LWNmSj9Z9L-36Y-17" value="" style="verticalLabelPosition=bottom;html=1;verticalAlign=top;align=center;strokeColor=none;fillColor=#00BEF2;shape=mxgraph.azure.computer;pointerEvents=1;" vertex="1" parent="1">
          <mxGeometry x="1080" y="440" width="80" height="80" as="geometry" />
        </mxCell>
        <mxCell id="iodz60LWNmSj9Z9L-36Y-18" value="" style="verticalLabelPosition=bottom;html=1;verticalAlign=top;align=center;strokeColor=none;fillColor=#00BEF2;shape=mxgraph.azure.computer;pointerEvents=1;" vertex="1" parent="1">
          <mxGeometry x="1240" y="440" width="80" height="80" as="geometry" />
        </mxCell>
        <mxCell id="iodz60LWNmSj9Z9L-36Y-19" style="rounded=0;orthogonalLoop=1;jettySize=auto;html=1;exitX=0.5;exitY=0;exitDx=0;exitDy=0;entryX=0;entryY=1;entryDx=0;entryDy=0;endArrow=none;endFill=0;" edge="1" source="iodz60LWNmSj9Z9L-36Y-20" target="iodz60LWNmSj9Z9L-36Y-26" parent="1">
          <mxGeometry relative="1" as="geometry" />
        </mxCell>
        <mxCell id="iodz60LWNmSj9Z9L-36Y-20" value="" style="verticalLabelPosition=bottom;html=1;verticalAlign=top;align=center;strokeColor=none;fillColor=#00BEF2;shape=mxgraph.azure.computer;pointerEvents=1;" vertex="1" parent="1">
          <mxGeometry x="1390" y="440" width="80" height="80" as="geometry" />
        </mxCell>
        <mxCell id="iodz60LWNmSj9Z9L-36Y-21" value="" style="verticalLabelPosition=bottom;html=1;verticalAlign=top;align=center;strokeColor=none;fillColor=#00BEF2;shape=mxgraph.azure.computer;pointerEvents=1;" vertex="1" parent="1">
          <mxGeometry x="1550" y="440" width="80" height="80" as="geometry" />
        </mxCell>
        <mxCell id="iodz60LWNmSj9Z9L-36Y-22" style="edgeStyle=none;rounded=0;orthogonalLoop=1;jettySize=auto;html=1;exitX=1;exitY=1;exitDx=0;exitDy=0;entryX=0.5;entryY=0;entryDx=0;entryDy=0;endArrow=none;endFill=0;strokeColor=#000000;" edge="1" source="iodz60LWNmSj9Z9L-36Y-24" target="iodz60LWNmSj9Z9L-36Y-18" parent="1">
          <mxGeometry relative="1" as="geometry" />
        </mxCell>
        <mxCell id="iodz60LWNmSj9Z9L-36Y-23" style="edgeStyle=none;rounded=0;orthogonalLoop=1;jettySize=auto;html=1;exitX=0.5;exitY=0;exitDx=0;exitDy=0;entryX=0.5;entryY=1;entryDx=0;entryDy=0;entryPerimeter=0;endArrow=none;endFill=0;strokeColor=#000000;exitPerimeter=0;" edge="1" source="iodz60LWNmSj9Z9L-36Y-5" target="iodz60LWNmSj9Z9L-36Y-28" parent="1">
          <mxGeometry relative="1" as="geometry" />
        </mxCell>
        <mxCell id="iodz60LWNmSj9Z9L-36Y-24" value="" style="image;html=1;image=img/lib/clip_art/networking/Switch_128x128.png;imageBorder=#000000;" vertex="1" parent="1">
          <mxGeometry x="1160" y="290" width="80" height="80" as="geometry" />
        </mxCell>
        <mxCell id="iodz60LWNmSj9Z9L-36Y-25" style="edgeStyle=none;rounded=0;orthogonalLoop=1;jettySize=auto;html=1;exitX=1;exitY=1;exitDx=0;exitDy=0;entryX=0.5;entryY=0;entryDx=0;entryDy=0;endArrow=none;endFill=0;strokeColor=#000000;" edge="1" source="iodz60LWNmSj9Z9L-36Y-26" target="iodz60LWNmSj9Z9L-36Y-21" parent="1">
          <mxGeometry relative="1" as="geometry" />
        </mxCell>
        <mxCell id="iodz60LWNmSj9Z9L-36Y-26" value="" style="image;html=1;image=img/lib/clip_art/networking/Switch_128x128.png;imageBorder=#000000;" vertex="1" parent="1">
          <mxGeometry x="1490" y="290" width="80" height="80" as="geometry" />
        </mxCell>
        <mxCell id="iodz60LWNmSj9Z9L-36Y-27" style="edgeStyle=none;rounded=0;orthogonalLoop=1;jettySize=auto;html=1;exitX=0.5;exitY=1;exitDx=0;exitDy=0;exitPerimeter=0;endArrow=none;endFill=0;strokeColor=#000000;" edge="1" source="iodz60LWNmSj9Z9L-36Y-28" target="iodz60LWNmSj9Z9L-36Y-26" parent="1">
          <mxGeometry relative="1" as="geometry" />
        </mxCell>
        <mxCell id="iodz60LWNmSj9Z9L-36Y-159" style="edgeStyle=none;rounded=0;orthogonalLoop=1;jettySize=auto;html=1;exitX=0.5;exitY=1;exitDx=0;exitDy=0;exitPerimeter=0;entryX=0.5;entryY=0;entryDx=0;entryDy=0;entryPerimeter=0;endArrow=none;endFill=0;strokeColor=#000000;" edge="1" parent="1" source="iodz60LWNmSj9Z9L-36Y-28" target="iodz60LWNmSj9Z9L-36Y-6">
          <mxGeometry relative="1" as="geometry" />
        </mxCell>
        <mxCell id="iodz60LWNmSj9Z9L-36Y-160" style="edgeStyle=none;rounded=0;orthogonalLoop=1;jettySize=auto;html=1;exitX=0.5;exitY=1;exitDx=0;exitDy=0;exitPerimeter=0;entryX=0.5;entryY=0;entryDx=0;entryDy=0;entryPerimeter=0;endArrow=none;endFill=0;strokeColor=#000000;" edge="1" parent="1" source="iodz60LWNmSj9Z9L-36Y-28" target="iodz60LWNmSj9Z9L-36Y-24">
          <mxGeometry relative="1" as="geometry" />
        </mxCell>
        <mxCell id="iodz60LWNmSj9Z9L-36Y-28" value="" style="points=[[0.015,0.015,0],[0.985,0.015,0],[0.985,0.985,0],[0.015,0.985,0],[0.25,0,0],[0.5,0,0],[0.75,0,0],[1,0.25,0],[1,0.5,0],[1,0.75,0],[0.75,1,0],[0.5,1,0],[0.25,1,0],[0,0.75,0],[0,0.5,0],[0,0.25,0]];verticalLabelPosition=bottom;html=1;verticalAlign=top;aspect=fixed;align=center;pointerEvents=1;shape=mxgraph.cisco19.rect;prIcon=l3_switch;fillColor=#FAFAFA;strokeColor=#005073;" vertex="1" parent="1">
          <mxGeometry x="1310" y="20" width="70" height="70" as="geometry" />
        </mxCell>
        <mxCell id="iodz60LWNmSj9Z9L-36Y-31" style="edgeStyle=none;rounded=0;orthogonalLoop=1;jettySize=auto;html=1;exitX=0.5;exitY=0;exitDx=0;exitDy=0;entryX=0;entryY=1;entryDx=0;entryDy=0;endArrow=none;endFill=0;strokeColor=#000000;" edge="1" source="iodz60LWNmSj9Z9L-36Y-32" target="iodz60LWNmSj9Z9L-36Y-39" parent="1">
          <mxGeometry relative="1" as="geometry" />
        </mxCell>
        <mxCell id="iodz60LWNmSj9Z9L-36Y-32" value="" style="image;html=1;image=img/lib/clip_art/networking/Switch_128x128.png;imageBorder=#000000;" vertex="1" parent="1">
          <mxGeometry x="1700" y="440" width="80" height="80" as="geometry" />
        </mxCell>
        <mxCell id="iodz60LWNmSj9Z9L-36Y-33" value="" style="image;html=1;image=img/lib/clip_art/networking/Switch_128x128.png;imageBorder=#000000;" vertex="1" parent="1">
          <mxGeometry x="1880" y="440" width="80" height="80" as="geometry" />
        </mxCell>
        <mxCell id="iodz60LWNmSj9Z9L-36Y-34" style="rounded=0;orthogonalLoop=1;jettySize=auto;html=1;exitX=0.5;exitY=0;exitDx=0;exitDy=0;entryX=0;entryY=1;entryDx=0;entryDy=0;endArrow=none;endFill=0;" edge="1" source="iodz60LWNmSj9Z9L-36Y-35" target="iodz60LWNmSj9Z9L-36Y-41" parent="1">
          <mxGeometry relative="1" as="geometry" />
        </mxCell>
        <mxCell id="iodz60LWNmSj9Z9L-36Y-35" value="" style="image;html=1;image=img/lib/clip_art/networking/Switch_128x128.png;imageBorder=#000000;" vertex="1" parent="1">
          <mxGeometry x="2030" y="440" width="80" height="80" as="geometry" />
        </mxCell>
        <mxCell id="iodz60LWNmSj9Z9L-36Y-36" value="" style="image;html=1;image=img/lib/clip_art/networking/Switch_128x128.png;imageBorder=#000000;" vertex="1" parent="1">
          <mxGeometry x="2190" y="440" width="80" height="80" as="geometry" />
        </mxCell>
        <mxCell id="iodz60LWNmSj9Z9L-36Y-37" style="edgeStyle=none;rounded=0;orthogonalLoop=1;jettySize=auto;html=1;exitX=1;exitY=1;exitDx=0;exitDy=0;entryX=0.5;entryY=0;entryDx=0;entryDy=0;endArrow=none;endFill=0;strokeColor=#000000;" edge="1" source="iodz60LWNmSj9Z9L-36Y-39" target="iodz60LWNmSj9Z9L-36Y-33" parent="1">
          <mxGeometry relative="1" as="geometry" />
        </mxCell>
        <mxCell id="iodz60LWNmSj9Z9L-36Y-38" style="edgeStyle=none;rounded=0;orthogonalLoop=1;jettySize=auto;html=1;exitX=1;exitY=0;exitDx=0;exitDy=0;entryX=0.015;entryY=0.985;entryDx=0;entryDy=0;entryPerimeter=0;endArrow=none;endFill=0;strokeColor=#000000;" edge="1" source="iodz60LWNmSj9Z9L-36Y-39" target="iodz60LWNmSj9Z9L-36Y-45" parent="1">
          <mxGeometry relative="1" as="geometry" />
        </mxCell>
        <mxCell id="iodz60LWNmSj9Z9L-36Y-39" value="" style="image;html=1;image=img/lib/clip_art/networking/Switch_128x128.png;imageBorder=#000000;" vertex="1" parent="1">
          <mxGeometry x="1770" y="250" width="80" height="80" as="geometry" />
        </mxCell>
        <mxCell id="iodz60LWNmSj9Z9L-36Y-40" style="edgeStyle=none;rounded=0;orthogonalLoop=1;jettySize=auto;html=1;exitX=1;exitY=1;exitDx=0;exitDy=0;entryX=0.5;entryY=0;entryDx=0;entryDy=0;endArrow=none;endFill=0;strokeColor=#000000;" edge="1" source="iodz60LWNmSj9Z9L-36Y-41" target="iodz60LWNmSj9Z9L-36Y-36" parent="1">
          <mxGeometry relative="1" as="geometry" />
        </mxCell>
        <mxCell id="iodz60LWNmSj9Z9L-36Y-41" value="" style="image;html=1;image=img/lib/clip_art/networking/Switch_128x128.png;imageBorder=#000000;" vertex="1" parent="1">
          <mxGeometry x="2090" y="250" width="80" height="80" as="geometry" />
        </mxCell>
        <mxCell id="iodz60LWNmSj9Z9L-36Y-42" style="edgeStyle=none;rounded=0;orthogonalLoop=1;jettySize=auto;html=1;exitX=0.985;exitY=0.985;exitDx=0;exitDy=0;exitPerimeter=0;endArrow=none;endFill=0;strokeColor=#000000;" edge="1" source="iodz60LWNmSj9Z9L-36Y-45" target="iodz60LWNmSj9Z9L-36Y-41" parent="1">
          <mxGeometry relative="1" as="geometry" />
        </mxCell>
        <mxCell id="iodz60LWNmSj9Z9L-36Y-43" style="edgeStyle=none;rounded=0;orthogonalLoop=1;jettySize=auto;html=1;exitX=1;exitY=0.25;exitDx=0;exitDy=0;exitPerimeter=0;entryX=0;entryY=0.25;entryDx=0;entryDy=0;entryPerimeter=0;endArrow=none;endFill=0;strokeColor=#000000;" edge="1" source="iodz60LWNmSj9Z9L-36Y-45" target="iodz60LWNmSj9Z9L-36Y-57" parent="1">
          <mxGeometry relative="1" as="geometry" />
        </mxCell>
        <mxCell id="iodz60LWNmSj9Z9L-36Y-44" style="edgeStyle=none;rounded=0;orthogonalLoop=1;jettySize=auto;html=1;exitX=1;exitY=0.75;exitDx=0;exitDy=0;exitPerimeter=0;entryX=0;entryY=0.75;entryDx=0;entryDy=0;entryPerimeter=0;endArrow=none;endFill=0;strokeColor=#000000;" edge="1" source="iodz60LWNmSj9Z9L-36Y-45" target="iodz60LWNmSj9Z9L-36Y-57" parent="1">
          <mxGeometry relative="1" as="geometry" />
        </mxCell>
        <mxCell id="iodz60LWNmSj9Z9L-36Y-45" value="" style="points=[[0.015,0.015,0],[0.985,0.015,0],[0.985,0.985,0],[0.015,0.985,0],[0.25,0,0],[0.5,0,0],[0.75,0,0],[1,0.25,0],[1,0.5,0],[1,0.75,0],[0.75,1,0],[0.5,1,0],[0.25,1,0],[0,0.75,0],[0,0.5,0],[0,0.25,0]];verticalLabelPosition=bottom;html=1;verticalAlign=top;aspect=fixed;align=center;pointerEvents=1;shape=mxgraph.cisco19.rect;prIcon=l3_switch;fillColor=#FAFAFA;strokeColor=#005073;" vertex="1" parent="1">
          <mxGeometry x="1930" y="100" width="70" height="70" as="geometry" />
        </mxCell>
        <mxCell id="iodz60LWNmSj9Z9L-36Y-46" style="edgeStyle=none;rounded=0;orthogonalLoop=1;jettySize=auto;html=1;exitX=0.5;exitY=0;exitDx=0;exitDy=0;entryX=0;entryY=1;entryDx=0;entryDy=0;endArrow=none;endFill=0;strokeColor=#000000;" edge="1" source="iodz60LWNmSj9Z9L-36Y-47" target="iodz60LWNmSj9Z9L-36Y-53" parent="1">
          <mxGeometry relative="1" as="geometry" />
        </mxCell>
        <mxCell id="iodz60LWNmSj9Z9L-36Y-47" value="" style="image;html=1;image=img/lib/clip_art/networking/Switch_128x128.png;imageBorder=#000000;" vertex="1" parent="1">
          <mxGeometry x="2310" y="440" width="80" height="80" as="geometry" />
        </mxCell>
        <mxCell id="iodz60LWNmSj9Z9L-36Y-48" value="" style="image;html=1;image=img/lib/clip_art/networking/Switch_128x128.png;imageBorder=#000000;" vertex="1" parent="1">
          <mxGeometry x="2450" y="440" width="80" height="80" as="geometry" />
        </mxCell>
        <mxCell id="iodz60LWNmSj9Z9L-36Y-49" style="rounded=0;orthogonalLoop=1;jettySize=auto;html=1;exitX=0.5;exitY=0;exitDx=0;exitDy=0;entryX=0;entryY=1;entryDx=0;entryDy=0;endArrow=none;endFill=0;" edge="1" source="iodz60LWNmSj9Z9L-36Y-50" target="iodz60LWNmSj9Z9L-36Y-55" parent="1">
          <mxGeometry relative="1" as="geometry" />
        </mxCell>
        <mxCell id="iodz60LWNmSj9Z9L-36Y-50" value="" style="image;html=1;image=img/lib/clip_art/networking/Switch_128x128.png;imageBorder=#000000;" vertex="1" parent="1">
          <mxGeometry x="2610" y="440" width="80" height="80" as="geometry" />
        </mxCell>
        <mxCell id="iodz60LWNmSj9Z9L-36Y-51" style="edgeStyle=none;rounded=0;orthogonalLoop=1;jettySize=auto;html=1;exitX=1;exitY=1;exitDx=0;exitDy=0;entryX=0.5;entryY=0;entryDx=0;entryDy=0;endArrow=none;endFill=0;strokeColor=#000000;" edge="1" source="iodz60LWNmSj9Z9L-36Y-53" target="iodz60LWNmSj9Z9L-36Y-48" parent="1">
          <mxGeometry relative="1" as="geometry" />
        </mxCell>
        <mxCell id="iodz60LWNmSj9Z9L-36Y-52" style="edgeStyle=none;rounded=0;orthogonalLoop=1;jettySize=auto;html=1;exitX=1;exitY=0;exitDx=0;exitDy=0;entryX=0.015;entryY=0.985;entryDx=0;entryDy=0;entryPerimeter=0;endArrow=none;endFill=0;strokeColor=#000000;" edge="1" source="iodz60LWNmSj9Z9L-36Y-53" target="iodz60LWNmSj9Z9L-36Y-57" parent="1">
          <mxGeometry relative="1" as="geometry" />
        </mxCell>
        <mxCell id="iodz60LWNmSj9Z9L-36Y-53" value="" style="image;html=1;image=img/lib/clip_art/networking/Switch_128x128.png;imageBorder=#000000;" vertex="1" parent="1">
          <mxGeometry x="2380" y="250" width="80" height="80" as="geometry" />
        </mxCell>
        <mxCell id="iodz60LWNmSj9Z9L-36Y-54" style="edgeStyle=none;rounded=0;orthogonalLoop=1;jettySize=auto;html=1;exitX=1;exitY=1;exitDx=0;exitDy=0;entryX=0.5;entryY=0;entryDx=0;entryDy=0;endArrow=none;endFill=0;strokeColor=#000000;" edge="1" source="iodz60LWNmSj9Z9L-36Y-55" parent="1">
          <mxGeometry relative="1" as="geometry">
            <mxPoint x="2820" y="440" as="targetPoint" />
          </mxGeometry>
        </mxCell>
        <mxCell id="iodz60LWNmSj9Z9L-36Y-55" value="" style="image;html=1;image=img/lib/clip_art/networking/Switch_128x128.png;imageBorder=#000000;" vertex="1" parent="1">
          <mxGeometry x="2700" y="250" width="80" height="80" as="geometry" />
        </mxCell>
        <mxCell id="iodz60LWNmSj9Z9L-36Y-56" style="edgeStyle=none;rounded=0;orthogonalLoop=1;jettySize=auto;html=1;exitX=0.985;exitY=0.985;exitDx=0;exitDy=0;exitPerimeter=0;endArrow=none;endFill=0;strokeColor=#000000;" edge="1" source="iodz60LWNmSj9Z9L-36Y-57" target="iodz60LWNmSj9Z9L-36Y-55" parent="1">
          <mxGeometry relative="1" as="geometry" />
        </mxCell>
        <mxCell id="iodz60LWNmSj9Z9L-36Y-57" value="" style="points=[[0.015,0.015,0],[0.985,0.015,0],[0.985,0.985,0],[0.015,0.985,0],[0.25,0,0],[0.5,0,0],[0.75,0,0],[1,0.25,0],[1,0.5,0],[1,0.75,0],[0.75,1,0],[0.5,1,0],[0.25,1,0],[0,0.75,0],[0,0.5,0],[0,0.25,0]];verticalLabelPosition=bottom;html=1;verticalAlign=top;aspect=fixed;align=center;pointerEvents=1;shape=mxgraph.cisco19.rect;prIcon=l3_switch;fillColor=#FAFAFA;strokeColor=#005073;" vertex="1" parent="1">
          <mxGeometry x="2540" y="100" width="70" height="70" as="geometry" />
        </mxCell>
        <mxCell id="iodz60LWNmSj9Z9L-36Y-62" style="edgeStyle=none;rounded=0;orthogonalLoop=1;jettySize=auto;html=1;exitX=0.5;exitY=1;exitDx=0;exitDy=0;exitPerimeter=0;entryX=0.5;entryY=0;entryDx=0;entryDy=0;entryPerimeter=0;endArrow=none;endFill=0;strokeColor=#000000;" edge="1" parent="1" source="iodz60LWNmSj9Z9L-36Y-58" target="iodz60LWNmSj9Z9L-36Y-28">
          <mxGeometry relative="1" as="geometry" />
        </mxCell>
        <mxCell id="iodz60LWNmSj9Z9L-36Y-63" style="edgeStyle=none;rounded=0;orthogonalLoop=1;jettySize=auto;html=1;exitX=0.5;exitY=1;exitDx=0;exitDy=0;exitPerimeter=0;entryX=0.5;entryY=0;entryDx=0;entryDy=0;entryPerimeter=0;endArrow=none;endFill=0;strokeColor=#000000;" edge="1" parent="1" source="iodz60LWNmSj9Z9L-36Y-58" target="iodz60LWNmSj9Z9L-36Y-45">
          <mxGeometry relative="1" as="geometry" />
        </mxCell>
        <mxCell id="iodz60LWNmSj9Z9L-36Y-64" style="edgeStyle=none;rounded=0;orthogonalLoop=1;jettySize=auto;html=1;exitX=0.5;exitY=1;exitDx=0;exitDy=0;exitPerimeter=0;entryX=0.5;entryY=0;entryDx=0;entryDy=0;entryPerimeter=0;endArrow=none;endFill=0;strokeColor=#000000;" edge="1" parent="1" source="iodz60LWNmSj9Z9L-36Y-58" target="iodz60LWNmSj9Z9L-36Y-57">
          <mxGeometry relative="1" as="geometry" />
        </mxCell>
        <mxCell id="iodz60LWNmSj9Z9L-36Y-73" style="edgeStyle=none;rounded=0;orthogonalLoop=1;jettySize=auto;html=1;exitX=0.5;exitY=0;exitDx=0;exitDy=0;exitPerimeter=0;entryX=0.5;entryY=1;entryDx=0;entryDy=0;entryPerimeter=0;endArrow=none;endFill=0;strokeColor=#000000;" edge="1" parent="1" source="iodz60LWNmSj9Z9L-36Y-58" target="iodz60LWNmSj9Z9L-36Y-71">
          <mxGeometry relative="1" as="geometry" />
        </mxCell>
        <mxCell id="iodz60LWNmSj9Z9L-36Y-74" style="edgeStyle=none;rounded=0;orthogonalLoop=1;jettySize=auto;html=1;exitX=0.5;exitY=0;exitDx=0;exitDy=0;exitPerimeter=0;entryX=0.5;entryY=1;entryDx=0;entryDy=0;entryPerimeter=0;endArrow=none;endFill=0;strokeColor=#000000;" edge="1" parent="1" source="iodz60LWNmSj9Z9L-36Y-58" target="iodz60LWNmSj9Z9L-36Y-72">
          <mxGeometry relative="1" as="geometry" />
        </mxCell>
        <mxCell id="iodz60LWNmSj9Z9L-36Y-58" value="" style="points=[[0.015,0.015,0],[0.985,0.015,0],[0.985,0.985,0],[0.015,0.985,0],[0.25,0,0],[0.5,0,0],[0.75,0,0],[1,0.25,0],[1,0.5,0],[1,0.75,0],[0.75,1,0],[0.5,1,0],[0.25,1,0],[0,0.75,0],[0,0.5,0],[0,0.25,0]];verticalLabelPosition=bottom;html=1;verticalAlign=top;aspect=fixed;align=center;pointerEvents=1;shape=mxgraph.cisco19.rect;prIcon=l3_switch;fillColor=#FAFAFA;strokeColor=#005073;" vertex="1" parent="1">
          <mxGeometry x="1310" y="-260" width="70" height="70" as="geometry" />
        </mxCell>
        <mxCell id="iodz60LWNmSj9Z9L-36Y-61" style="edgeStyle=none;rounded=0;orthogonalLoop=1;jettySize=auto;html=1;exitX=0.5;exitY=1;exitDx=0;exitDy=0;exitPerimeter=0;endArrow=none;endFill=0;strokeColor=#000000;entryX=0.5;entryY=0;entryDx=0;entryDy=0;entryPerimeter=0;" edge="1" parent="1" source="iodz60LWNmSj9Z9L-36Y-59" target="iodz60LWNmSj9Z9L-36Y-12">
          <mxGeometry relative="1" as="geometry">
            <mxPoint x="730" y="90" as="targetPoint" />
          </mxGeometry>
        </mxCell>
        <mxCell id="iodz60LWNmSj9Z9L-36Y-65" style="edgeStyle=none;rounded=0;orthogonalLoop=1;jettySize=auto;html=1;exitX=0.5;exitY=1;exitDx=0;exitDy=0;exitPerimeter=0;entryX=0.5;entryY=0;entryDx=0;entryDy=0;entryPerimeter=0;endArrow=none;endFill=0;strokeColor=#000000;" edge="1" parent="1" source="iodz60LWNmSj9Z9L-36Y-59" target="iodz60LWNmSj9Z9L-36Y-57">
          <mxGeometry relative="1" as="geometry" />
        </mxCell>
        <mxCell id="iodz60LWNmSj9Z9L-36Y-66" style="edgeStyle=none;rounded=0;orthogonalLoop=1;jettySize=auto;html=1;exitX=0.5;exitY=1;exitDx=0;exitDy=0;exitPerimeter=0;endArrow=none;endFill=0;strokeColor=#000000;" edge="1" parent="1" source="iodz60LWNmSj9Z9L-36Y-59">
          <mxGeometry relative="1" as="geometry">
            <mxPoint x="1960" y="100" as="targetPoint" />
          </mxGeometry>
        </mxCell>
        <mxCell id="iodz60LWNmSj9Z9L-36Y-67" style="edgeStyle=none;rounded=0;orthogonalLoop=1;jettySize=auto;html=1;exitX=0.5;exitY=1;exitDx=0;exitDy=0;exitPerimeter=0;entryX=0.5;entryY=0;entryDx=0;entryDy=0;entryPerimeter=0;endArrow=none;endFill=0;strokeColor=#000000;" edge="1" parent="1" source="iodz60LWNmSj9Z9L-36Y-59" target="iodz60LWNmSj9Z9L-36Y-28">
          <mxGeometry relative="1" as="geometry" />
        </mxCell>
        <mxCell id="iodz60LWNmSj9Z9L-36Y-75" style="edgeStyle=none;rounded=0;orthogonalLoop=1;jettySize=auto;html=1;exitX=0.5;exitY=0;exitDx=0;exitDy=0;exitPerimeter=0;entryX=0.5;entryY=1;entryDx=0;entryDy=0;entryPerimeter=0;endArrow=none;endFill=0;strokeColor=#000000;" edge="1" parent="1" source="iodz60LWNmSj9Z9L-36Y-59" target="iodz60LWNmSj9Z9L-36Y-71">
          <mxGeometry relative="1" as="geometry" />
        </mxCell>
        <mxCell id="iodz60LWNmSj9Z9L-36Y-76" style="edgeStyle=none;rounded=0;orthogonalLoop=1;jettySize=auto;html=1;exitX=0.5;exitY=0;exitDx=0;exitDy=0;exitPerimeter=0;entryX=0.5;entryY=1;entryDx=0;entryDy=0;entryPerimeter=0;endArrow=none;endFill=0;strokeColor=#000000;" edge="1" parent="1" source="iodz60LWNmSj9Z9L-36Y-59" target="iodz60LWNmSj9Z9L-36Y-72">
          <mxGeometry relative="1" as="geometry" />
        </mxCell>
        <mxCell id="iodz60LWNmSj9Z9L-36Y-59" value="" style="points=[[0.015,0.015,0],[0.985,0.015,0],[0.985,0.985,0],[0.015,0.985,0],[0.25,0,0],[0.5,0,0],[0.75,0,0],[1,0.25,0],[1,0.5,0],[1,0.75,0],[0.75,1,0],[0.5,1,0],[0.25,1,0],[0,0.75,0],[0,0.5,0],[0,0.25,0]];verticalLabelPosition=bottom;html=1;verticalAlign=top;aspect=fixed;align=center;pointerEvents=1;shape=mxgraph.cisco19.rect;prIcon=l3_switch;fillColor=#FAFAFA;strokeColor=#005073;" vertex="1" parent="1">
          <mxGeometry x="1930" y="-260" width="70" height="70" as="geometry" />
        </mxCell>
        <mxCell id="iodz60LWNmSj9Z9L-36Y-68" value="" style="image;html=1;image=img/lib/clip_art/networking/Switch_128x128.png;imageBorder=#000000;" vertex="1" parent="1">
          <mxGeometry x="2780" y="440" width="80" height="80" as="geometry" />
        </mxCell>
        <mxCell id="iodz60LWNmSj9Z9L-36Y-69" style="edgeStyle=none;rounded=0;orthogonalLoop=1;jettySize=auto;html=1;exitX=1;exitY=0.25;exitDx=0;exitDy=0;exitPerimeter=0;entryX=0;entryY=0.25;entryDx=0;entryDy=0;entryPerimeter=0;endArrow=none;endFill=0;strokeColor=#000000;" edge="1" parent="1" source="iodz60LWNmSj9Z9L-36Y-71" target="iodz60LWNmSj9Z9L-36Y-72">
          <mxGeometry relative="1" as="geometry" />
        </mxCell>
        <mxCell id="iodz60LWNmSj9Z9L-36Y-70" style="edgeStyle=none;rounded=0;orthogonalLoop=1;jettySize=auto;html=1;exitX=1;exitY=0.75;exitDx=0;exitDy=0;exitPerimeter=0;entryX=0;entryY=0.75;entryDx=0;entryDy=0;entryPerimeter=0;endArrow=none;endFill=0;strokeColor=#000000;" edge="1" parent="1" source="iodz60LWNmSj9Z9L-36Y-71" target="iodz60LWNmSj9Z9L-36Y-72">
          <mxGeometry relative="1" as="geometry" />
        </mxCell>
        <mxCell id="iodz60LWNmSj9Z9L-36Y-71" value="" style="points=[[0.015,0.015,0],[0.985,0.015,0],[0.985,0.985,0],[0.015,0.985,0],[0.25,0,0],[0.5,0,0],[0.75,0,0],[1,0.25,0],[1,0.5,0],[1,0.75,0],[0.75,1,0],[0.5,1,0],[0.25,1,0],[0,0.75,0],[0,0.5,0],[0,0.25,0]];verticalLabelPosition=bottom;html=1;verticalAlign=top;aspect=fixed;align=center;pointerEvents=1;shape=mxgraph.cisco19.rect;prIcon=l3_switch;fillColor=#FAFAFA;strokeColor=#005073;rotation=0;" vertex="1" parent="1">
          <mxGeometry x="2130" y="-530" width="70" height="70" as="geometry" />
        </mxCell>
        <mxCell id="iodz60LWNmSj9Z9L-36Y-72" value="" style="points=[[0.015,0.015,0],[0.985,0.015,0],[0.985,0.985,0],[0.015,0.985,0],[0.25,0,0],[0.5,0,0],[0.75,0,0],[1,0.25,0],[1,0.5,0],[1,0.75,0],[0.75,1,0],[0.5,1,0],[0.25,1,0],[0,0.75,0],[0,0.5,0],[0,0.25,0]];verticalLabelPosition=bottom;html=1;verticalAlign=top;aspect=fixed;align=center;pointerEvents=1;shape=mxgraph.cisco19.rect;prIcon=l3_switch;fillColor=#FAFAFA;strokeColor=#005073;rotation=0;" vertex="1" parent="1">
          <mxGeometry x="2550" y="-530" width="70" height="70" as="geometry" />
        </mxCell>
        <mxCell id="iodz60LWNmSj9Z9L-36Y-78" style="edgeStyle=none;rounded=0;orthogonalLoop=1;jettySize=auto;html=1;exitX=0.015;exitY=0.015;exitDx=0;exitDy=0;exitPerimeter=0;entryX=0.5;entryY=1;entryDx=0;entryDy=0;entryPerimeter=0;endArrow=none;endFill=0;strokeColor=#000000;" edge="1" parent="1" source="iodz60LWNmSj9Z9L-36Y-77" target="iodz60LWNmSj9Z9L-36Y-71">
          <mxGeometry relative="1" as="geometry" />
        </mxCell>
        <mxCell id="iodz60LWNmSj9Z9L-36Y-79" style="edgeStyle=none;rounded=0;orthogonalLoop=1;jettySize=auto;html=1;exitX=0.985;exitY=0.015;exitDx=0;exitDy=0;exitPerimeter=0;entryX=0.5;entryY=1;entryDx=0;entryDy=0;entryPerimeter=0;endArrow=none;endFill=0;strokeColor=#000000;" edge="1" parent="1" source="iodz60LWNmSj9Z9L-36Y-77" target="iodz60LWNmSj9Z9L-36Y-72">
          <mxGeometry relative="1" as="geometry" />
        </mxCell>
        <mxCell id="iodz60LWNmSj9Z9L-36Y-77" value="" style="verticalLabelPosition=bottom;aspect=fixed;html=1;verticalAlign=top;strokeColor=none;align=center;outlineConnect=0;shape=mxgraph.citrix.dhcp_server;labelBackgroundColor=white;" vertex="1" parent="1">
          <mxGeometry x="2180" y="-260" width="70" height="70" as="geometry" />
        </mxCell>
        <mxCell id="iodz60LWNmSj9Z9L-36Y-139" style="edgeStyle=none;rounded=0;orthogonalLoop=1;jettySize=auto;html=1;exitX=0.5;exitY=1;exitDx=0;exitDy=0;entryX=0.5;entryY=0;entryDx=0;entryDy=0;entryPerimeter=0;endArrow=none;endFill=0;strokeColor=#000000;" edge="1" parent="1" source="iodz60LWNmSj9Z9L-36Y-137" target="iodz60LWNmSj9Z9L-36Y-71">
          <mxGeometry relative="1" as="geometry" />
        </mxCell>
        <mxCell id="iodz60LWNmSj9Z9L-36Y-142" style="edgeStyle=none;rounded=0;orthogonalLoop=1;jettySize=auto;html=1;exitX=0.5;exitY=1;exitDx=0;exitDy=0;entryX=0.5;entryY=0;entryDx=0;entryDy=0;entryPerimeter=0;endArrow=none;endFill=0;strokeColor=#000000;" edge="1" parent="1" source="iodz60LWNmSj9Z9L-36Y-137" target="iodz60LWNmSj9Z9L-36Y-72">
          <mxGeometry relative="1" as="geometry" />
        </mxCell>
        <mxCell id="iodz60LWNmSj9Z9L-36Y-137" value="" style="image;html=1;image=img/lib/clip_art/networking/Router_Icon_128x128.png;imageBorder=#000000;" vertex="1" parent="1">
          <mxGeometry x="2170" y="-700" width="80" height="80" as="geometry" />
        </mxCell>
        <mxCell id="iodz60LWNmSj9Z9L-36Y-140" style="edgeStyle=none;rounded=0;orthogonalLoop=1;jettySize=auto;html=1;exitX=0.5;exitY=1;exitDx=0;exitDy=0;entryX=0.5;entryY=0;entryDx=0;entryDy=0;entryPerimeter=0;endArrow=none;endFill=0;strokeColor=#000000;" edge="1" parent="1" source="iodz60LWNmSj9Z9L-36Y-138" target="iodz60LWNmSj9Z9L-36Y-72">
          <mxGeometry relative="1" as="geometry" />
        </mxCell>
        <mxCell id="iodz60LWNmSj9Z9L-36Y-141" style="edgeStyle=none;rounded=0;orthogonalLoop=1;jettySize=auto;html=1;exitX=0.5;exitY=1;exitDx=0;exitDy=0;entryX=0.5;entryY=0;entryDx=0;entryDy=0;entryPerimeter=0;endArrow=none;endFill=0;strokeColor=#000000;" edge="1" parent="1" source="iodz60LWNmSj9Z9L-36Y-138" target="iodz60LWNmSj9Z9L-36Y-71">
          <mxGeometry relative="1" as="geometry" />
        </mxCell>
        <mxCell id="iodz60LWNmSj9Z9L-36Y-138" value="" style="image;html=1;image=img/lib/clip_art/networking/Router_Icon_128x128.png;imageBorder=#000000;" vertex="1" parent="1">
          <mxGeometry x="2545" y="-700" width="80" height="80" as="geometry" />
        </mxCell>
        <mxCell id="iodz60LWNmSj9Z9L-36Y-146" style="edgeStyle=none;rounded=0;orthogonalLoop=1;jettySize=auto;html=1;entryX=0.5;entryY=1;entryDx=0;entryDy=0;entryPerimeter=0;endArrow=none;endFill=0;strokeColor=#000000;" edge="1" parent="1" source="iodz60LWNmSj9Z9L-36Y-145" target="iodz60LWNmSj9Z9L-36Y-71">
          <mxGeometry relative="1" as="geometry" />
        </mxCell>
        <mxCell id="iodz60LWNmSj9Z9L-36Y-147" style="edgeStyle=none;rounded=0;orthogonalLoop=1;jettySize=auto;html=1;exitX=1;exitY=0;exitDx=0;exitDy=0;endArrow=none;endFill=0;strokeColor=#000000;" edge="1" parent="1" source="iodz60LWNmSj9Z9L-36Y-145">
          <mxGeometry relative="1" as="geometry">
            <mxPoint x="2580" y="-460" as="targetPoint" />
          </mxGeometry>
        </mxCell>
        <mxCell id="iodz60LWNmSj9Z9L-36Y-145" value="" style="image;html=1;image=img/lib/clip_art/computers/Server_128x128.png;labelBackgroundColor=white;imageBorder=#000000;" vertex="1" parent="1">
          <mxGeometry x="2410" y="-260" width="80" height="80" as="geometry" />
        </mxCell>
      </root>
    </mxGraphModel>
  </diagram>
</mxfile>
